# xmcd CD database file
#
# Track frame offsets:
#	182
#	44930
#	79460
#	112900
#	133607
#	153187
#	186600
#	217780
#	257472
#	295967
#
# Disc length: 4672 seconds
#
# Revision: 1
# Processed by: cddbd v1.5.2PL0 Copyright (c) Steve Scherf et al.
# Submitted via: CDex 1.51
#
DISCID=92123e0a
DTITLE=Bob Dylan - Romantic Tales Of Musketeers
DYEAR=1995
DGENRE=Blues
TTITLE0=Joey
TTITLE1=Like A Rolling Stones
TTITLE2=My Back Pages
TTITLE3=I Shall Be Released
TTITLE4=Rainy Day Women No
TTITLE5=Dignity
TTITLE6=She Belongs To Me
TTITLE7=Maggies Farm
TTITLE8=Ballad Of A Thin Man
TTITLE9=It Aint Me Babe
EXTD=YEAR: 1995
EXTT0=
EXTT1=
EXTT2=
EXTT3=
EXTT4=
EXTT5=
EXTT6=
EXTT7=
EXTT8=
EXTT9=
PLAYORDER=
